<svg width="163" height="28" xmlns="http://www.w3.org/2000/svg" xmlns:xlink="http://www.w3.org/1999/xlink"><defs><path id="a" d="M0 .085h38.47V28H0z"/><path id="c" d="M0 28h163V0H0z"/></defs><g fill="none" fill-rule="evenodd"><mask id="b" fill="#fff"><use xlink:href="#a"/></mask><path d="M19.235.085c-7.917 0-15.643 2.702-15.969 2.816L0 4.057V28l6.434-2.15c5.55-1.855 11.284-1.949 12.378-1.949l.295.003.127.003.137-.003.286-.003c1.094 0 6.828.094 12.379 1.95L38.469 28V4.056l-3.266-1.155C34.878 2.787 27.152.085 19.235.085m0 4.914c7.172 0 14.344 2.537 14.344 2.537v13.652c-6.142-2.052-12.284-2.2-13.922-2.2-.274 0-.422.004-.422.004s-.148-.004-.423-.004c-1.638 0-7.78.148-13.922 2.2V7.536s7.172-2.537 14.345-2.537" fill="#2D3EE0" mask="url(#b)"/><path d="M47.902 17.89v-.705h4.738v.858c0 1.745 2.477 3.001 5.32 3.001 2.05 0 4.467-.735 4.467-2.695 0-4.226-14.007-.611-14.007-9.036 0-3.37 2.385-6.646 9.022-6.646 6.451 0 9.295 3.001 9.295 7.013v.767h-4.74V9.68c0-1.56-2.017-2.724-4.649-2.724-2.292 0-4.158.824-4.158 2.357 0 3.279 14.006.737 14.006 8.975 0 3.83-3.18 7.045-9.38 7.045-6.244 0-9.914-3.155-9.914-7.442M87.155 7.67h-6.892v17.663h-4.811V7.67h-6.925V3.333h18.628zM95.31 13.064h6.355c1.59 0 2.617-.744 2.617-2.077v-1.24c0-1.334-.998-2.076-2.587-2.076H95.31v5.393zm9.97 3.625l3.8 8.644h-5.016l-3.645-7.932h-5.11v7.932h-4.827v-22h10.871c4.736 0 7.757 2.51 7.757 6.63v.808c0 2.82-1.401 4.894-3.83 5.918z" fill="#FFF"/><mask id="d" fill="#fff"><use xlink:href="#c"/></mask><path fill="#FFF" mask="url(#d)" d="M113.102 25.333h4.657v-22h-4.657zM141.71 3.333l-6.651 22h-7.322l-6.651-22h4.912l5.4 16.95 5.462-16.95zM149.2 13.064h6.358c1.59 0 2.617-.744 2.617-2.077v-1.24c0-1.334-1.006-2.076-2.585-2.076h-6.387l-.003 5.393zm9.97 3.625l3.8 8.644h-5.016l-3.645-7.932h-5.11v7.932h-4.828v-22h10.874c4.734 0 7.755 2.51 7.755 6.63v.808c0 2.82-1.407 4.894-3.83 5.918z"/></g></svg>